# xmcd
#
# Track frame offsets:
#	300
#	16462
#	27391
#	44862
#	58620
#	69690
#	81824
#	92003
#	105859
#	122693
#	137397
#	150387
#	164940
#	178422
#	188328
#	203839
#	225222
#	244481
#	266528
#	279661
#
# Disc length: 3897 seconds
#
# Revision: 0
# Processed by: cddbd v1.5.1PL2 Copyright (c) Steve Scherf et al.
# Submitted via: audiograbber 1.83.01
#
DISCID=170f3514
DTITLE=Various Artist - The Ultimate Country Collection Disc 2
DYEAR=1900
DGENRE=
TTITLE0=Willie Nelson - You Were Always On My Mind
TTITLE1=Hank Locklin - Please Help Me, I'm Falling
TTITLE2=Ray Price - For The Good Times
TTITLE3=Loretta Lynn - Coal Miner's Daughter
TTITLE4=Don Gibson - Oh, Lonesome Me
TTITLE5=Lacy J. Dalton - Hillbilly Girl With The Blues
TTITLE6=George Hamilton IV - Abilene
TTITLE7=Faron Young - (It's) four in the morning
TTITLE8=Kris Kristofferson - Loving Her was Easier
TTITLE9=Mac Davis - Baby Don't Get Hooked On Me
TTITLE10=Nanci Griffith - Lone Star State Of Mind
TTITLE11=The Bellamy Brothers - If I Said You Had A Beautiful Body Would You Ho
TTITLE11=ld It Against Me
TTITLE12=Dolly Parton - Here You Come A
TTITLE13=Waylon Jennings - Good Ol' Boys
TTITLE14=Mary Chapin Carpenter - Down at the Twist and Shout
TTITLE15=Marty Robbins - El Paso
TTITLE16=Keith Whitley - Don't Close Your Eyes
TTITLE17=Bette Midler - The Wind Beneath my Wings
TTITLE18=Crystal Gayle - Talking In Your Sleep
TTITLE19=Alan Jackson - dont rock the jukebox
EXTD=
EXTT0=
EXTT1=
EXTT2=
EXTT3=
EXTT4=
EXTT5=
EXTT6=
EXTT7=
EXTT8=
EXTT9=
EXTT10=
EXTT11=
EXTT12=
EXTT13=
EXTT14=
EXTT15=
EXTT16=
EXTT17=
EXTT18=
EXTT19=
PLAYORDER=
